<svg width="24" height="22" viewBox="0 0 24 22" fill="none" xmlns="http://www.w3.org/2000/svg">
<path d="M2 11.8801V10.1201C2 9.08006 2.85 8.22006 3.9 8.22006C5.71 8.22006 6.45 6.94006 5.54 5.37006C5.02 4.47006 5.33 3.30006 6.24 2.78006L7.97 1.79006C8.76 1.32006 9.78 1.60006 10.25 2.39006L10.36 2.58006C11.26 4.15006 12.74 4.15006 13.65 2.58006L13.76 2.39006C14.23 1.60006 15.25 1.32006 16.04 1.79006L17.77 2.78006C18.68 3.30006 18.99 4.47006 18.47 5.37006C17.56 6.94006 18.3 8.22006 20.11 8.22006C21.15 8.22006 22.01 9.07006 22.01 10.1201V11.8801C22.01 12.9201 21.16 13.7801 20.11 13.7801C18.3 13.7801 17.56 15.0601 18.47 16.6301C18.99 17.5401 18.68 18.7001 17.77 19.2201L16.04 20.2101C15.25 20.6801 14.23 20.4001 13.76 19.6101L13.65 19.4201C12.75 17.8501 11.27 17.8501 10.36 19.4201L10.25 19.6101C9.78 20.4001 8.76 20.6801 7.97 20.2101L6.24 19.2201C5.8041 18.9691 5.48558 18.5554 5.35435 18.0698C5.22311 17.5843 5.28988 17.0665 5.54 16.6301C6.45 15.0601 5.71 13.7801 3.9 13.7801C2.85 13.7801 2 12.9201 2 11.8801Z" stroke="white" stroke-width="2.5" stroke-miterlimit="10" stroke-linecap="round" stroke-linejoin="round"/>
</svg>
