<svg width="27" height="25" viewBox="0 0 27 25" fill="none" xmlns="http://www.w3.org/2000/svg">
<path d="M25.0184 7.88008L16.0108 0.823203C14.62 -0.272269 12.3713 -0.272269 10.9935 0.810465L1.98588 7.88008C0.972036 8.66983 0.322134 10.3385 0.543101 11.5868L2.27184 21.7263C2.58379 23.5351 4.35153 25 6.22324 25H20.781C22.6398 25 24.4205 23.5224 24.7324 21.7263L26.4612 11.5868C26.6692 10.3385 26.0193 8.66983 25.0184 7.88008ZM13.5021 16.9623C12.6403 16.9623 11.8138 16.6268 11.2044 16.0296C10.595 15.4324 10.2526 14.6224 10.2526 13.7778C10.2526 12.9332 10.595 12.1232 11.2044 11.526C11.8138 10.9288 12.6403 10.5933 13.5021 10.5933C14.364 10.5933 15.1905 10.9288 15.7999 11.526C16.4093 12.1232 16.7517 12.9332 16.7517 13.7778C16.7517 14.6224 16.4093 15.4324 15.7999 16.0296C15.1905 16.6268 14.364 16.9623 13.5021 16.9623Z" fill="white"/>
</svg>
