<svg width="136" height="136" viewBox="0 0 136 136" fill="none" xmlns="http://www.w3.org/2000/svg">
<g filter="url(#filter0_d_39_115)">
<circle cx="68" cy="64" r="64" fill="url(#paint0_linear_39_115)"/>
<path d="M45.5041 91.5732C52.7788 101.745 62.1112 106.258 65.8681 107.243C65.6632 107.756 66.4658 108.57 66.8927 108.912C67.405 109.529 66.0816 111.738 65.3558 112.765C67.2001 114.512 69.1981 113.664 69.9665 113.022C69.0444 112.303 68.4723 109.983 68.3015 108.912C68.8138 108.501 69.1981 107.628 69.3261 107.243C83.4657 103.441 96.3074 83.3104 100.961 73.7204C108.031 58.8217 104.59 43.5376 101.985 37.7579C93.1738 18.6464 75.7726 14.6392 68.1735 15.0245C46.2469 15.1273 35.6423 30.6511 33.0807 38.4001C23.8593 60.4914 37.5207 83.0536 45.5041 91.5732Z" fill="white"/>
<path d="M49.4906 59.6762V56.4929C49.4906 54.6118 51.028 53.0564 52.9271 53.0564C56.2008 53.0564 57.5393 50.7412 55.8933 47.9016C54.9528 46.2738 55.5135 44.1576 57.1594 43.2171L60.2885 41.4265C61.7173 40.5764 63.5622 41.0829 64.4123 42.5117L64.6112 42.8554C66.239 45.695 68.9159 45.695 70.5618 42.8554L70.7607 42.5117C71.6108 41.0829 73.4557 40.5764 74.8845 41.4265L78.0136 43.2171C79.6595 44.1576 80.2202 46.2738 79.2796 47.9016C77.6337 50.7412 78.9722 53.0564 82.2459 53.0564C84.1269 53.0564 85.6824 54.5937 85.6824 56.4929V59.6762C85.6824 61.5572 84.145 63.1127 82.2459 63.1127C78.9722 63.1127 77.6337 65.4278 79.2796 68.2674C80.2202 69.9133 79.6595 72.0114 78.0136 72.9519L74.8845 74.7425C73.4557 75.5926 71.6108 75.0862 70.7607 73.6573L70.5618 73.3136C68.934 70.474 66.2571 70.474 64.6112 73.3136L64.4123 73.6573C63.5622 75.0862 61.7173 75.5926 60.2885 74.7425L57.1594 72.9519C56.371 72.498 55.7949 71.7498 55.5576 70.8715C55.3202 69.9933 55.441 69.0567 55.8933 68.2674C57.5393 65.4278 56.2008 63.1127 52.9271 63.1127C51.028 63.1127 49.4906 61.5572 49.4906 59.6762Z" fill="#3F4CC7"/>
<path d="M67.5775 63.5106C69.0165 63.5106 70.3967 62.9389 71.4143 61.9213C72.4318 60.9037 73.0035 59.5236 73.0035 58.0845C73.0035 56.6454 72.4318 55.2653 71.4143 54.2477C70.3967 53.2301 69.0165 52.6585 67.5775 52.6585C66.1384 52.6585 64.7582 53.2301 63.7407 54.2477C62.7231 55.2653 62.1514 56.6454 62.1514 58.0845C62.1514 59.5236 62.7231 60.9037 63.7407 61.9213C64.7582 62.9389 66.1384 63.5106 67.5775 63.5106Z" fill="white" stroke="#5154A0" stroke-width="1.5" stroke-miterlimit="10" stroke-linecap="round" stroke-linejoin="round"/>
</g>
<defs>
<filter id="filter0_d_39_115" x="0" y="0" width="136" height="136" filterUnits="userSpaceOnUse" color-interpolation-filters="sRGB">
<feFlood flood-opacity="0" result="BackgroundImageFix"/>
<feColorMatrix in="SourceAlpha" type="matrix" values="0 0 0 0 0 0 0 0 0 0 0 0 0 0 0 0 0 0 127 0" result="hardAlpha"/>
<feOffset dy="4"/>
<feGaussianBlur stdDeviation="2"/>
<feComposite in2="hardAlpha" operator="out"/>
<feColorMatrix type="matrix" values="0 0 0 0 0 0 0 0 0 0 0 0 0 0 0 0 0 0 0.25 0"/>
<feBlend mode="normal" in2="BackgroundImageFix" result="effect1_dropShadow_39_115"/>
<feBlend mode="normal" in="SourceGraphic" in2="effect1_dropShadow_39_115" result="shape"/>
</filter>
<linearGradient id="paint0_linear_39_115" x1="68" y1="0" x2="68" y2="128" gradientUnits="userSpaceOnUse">
<stop stop-color="#2C43B8"/>
<stop offset="1" stop-color="#4C60C7"/>
</linearGradient>
</defs>
</svg>
